<svg width="26" height="25" viewBox="0 0 26 25" fill="none" xmlns="http://www.w3.org/2000/svg">
<path d="M13.3614 0.265869C11.7201 0.265869 10.095 0.589133 8.57867 1.2172C7.06237 1.84528 5.68463 2.76586 4.52411 3.92638C2.18032 6.27017 0.863594 9.44902 0.863594 12.7636C0.863594 18.2876 4.45045 22.9743 9.41207 24.6365C10.037 24.7365 10.2369 24.3491 10.2369 24.0116C10.2369 23.7242 10.2369 22.9368 10.2369 21.8995C6.77504 22.6494 6.03767 20.2248 6.03767 20.2248C5.46277 18.7751 4.65042 18.3876 4.65042 18.3876C3.51312 17.6128 4.7379 17.6378 4.7379 17.6378C5.98768 17.7252 6.65006 18.925 6.65006 18.925C7.73737 20.8247 9.57454 20.2623 10.2869 19.9623C10.3994 19.15 10.7243 18.6001 11.0743 18.2876C8.29977 17.9752 5.38779 16.9004 5.38779 12.1387C5.38779 10.7515 5.8627 9.63919 6.67506 8.75185C6.55008 8.43941 6.11266 7.13964 6.80003 5.45244C6.80003 5.45244 7.84985 5.115 10.2369 6.72721C11.2242 6.45226 12.2991 6.31479 13.3614 6.31479C14.4237 6.31479 15.4985 6.45226 16.4858 6.72721C18.8729 5.115 19.9227 5.45244 19.9227 5.45244C20.6101 7.13964 20.1726 8.43941 20.0477 8.75185C20.86 9.63919 21.3349 10.7515 21.3349 12.1387C21.3349 16.9129 18.4105 17.9627 15.6235 18.2752C16.0734 18.6626 16.4858 19.4249 16.4858 20.5872C16.4858 22.2619 16.4858 23.6117 16.4858 24.0116C16.4858 24.3491 16.6858 24.749 17.3232 24.6365C22.2848 22.9618 25.8591 18.2876 25.8591 12.7636C25.8591 11.1224 25.5359 9.49725 24.9078 7.98095C24.2797 6.46465 23.3591 5.08691 22.1986 3.92638C21.0381 2.76586 19.6603 1.84528 18.1441 1.2172C16.6278 0.589133 15.0026 0.265869 13.3614 0.265869Z" fill="black"/>
</svg>
