<svg width="26" height="13" viewBox="0 0 26 13" fill="none" xmlns="http://www.w3.org/2000/svg">
<path d="M2.93964 6.72534C2.93964 4.58784 4.67714 2.85034 6.81464 2.85034L11.8146 2.85034V0.475342L6.81464 0.475342C5.15703 0.475342 3.56732 1.13382 2.39522 2.30592C1.22312 3.47803 0.564636 5.06774 0.564636 6.72534C0.564636 8.38295 1.22312 9.97266 2.39522 11.1448C3.56732 12.3169 5.15703 12.9753 6.81464 12.9753H11.8146V10.6003H6.81464C4.67714 10.6003 2.93964 8.86284 2.93964 6.72534ZM8.06464 7.97534L18.0646 7.97534V5.47534L8.06464 5.47534V7.97534ZM19.3146 0.475342L14.3146 0.475342V2.85034H19.3146C21.4521 2.85034 23.1896 4.58784 23.1896 6.72534C23.1896 8.86284 21.4521 10.6003 19.3146 10.6003H14.3146V12.9753H19.3146C20.9722 12.9753 22.562 12.3169 23.7341 11.1448C24.9062 9.97266 25.5646 8.38295 25.5646 6.72534C25.5646 5.06774 24.9062 3.47803 23.7341 2.30592C22.562 1.13382 20.9722 0.475342 19.3146 0.475342Z" fill="black"/>
</svg>
