<svg width="358" height="358" viewBox="0 0 358 358" fill="none" xmlns="http://www.w3.org/2000/svg">
<rect width="358" height="358" rx="20" fill="#272932"/>
<path d="M68.2687 70.5366C65.23 66.7245 65.8569 61.1709 69.6689 58.1321L70.1533 57.746C73.9653 54.7073 79.519 55.3341 82.5577 59.1462L181.519 183.29C184.557 187.102 183.93 192.656 180.118 195.694L179.634 196.08C175.822 199.119 170.268 198.492 167.23 194.68L68.2687 70.5366Z" fill="#FFCA3A" fill-opacity="0.8"/>
<path d="M166.248 183.29C163.209 187.102 163.836 192.655 167.648 195.694L168.133 196.08C171.945 199.119 177.498 198.492 180.537 194.68L279.498 70.5362C282.537 66.7242 281.91 61.1706 278.098 58.1318L277.614 57.7457C273.802 54.7069 268.248 55.3338 265.209 59.1458L166.248 183.29Z" fill="#8AC926" fill-opacity="0.8"/>
<path d="M263 64.8276C263 59.9523 267.051 56 272.048 56H272.952C277.949 56 282 59.9522 282 64.8276V303.172C282 308.048 277.949 312 272.952 312H272.048C267.051 312 263 308.048 263 303.172V64.8276Z" fill="#1982C4" fill-opacity="0.9"/>
<path d="M66 64.8276C66 59.9523 70.0508 56 75.0476 56H75.9524C80.9492 56 85 59.9522 85 64.8276V303.172C85 308.048 80.9492 312 75.9524 312H75.0476C70.0508 312 66 308.048 66 303.172V64.8276Z" fill="#F25F5C" fill-opacity="0.9"/>
<path d="M141.184 242C142.37 242 143.494 242.526 144.254 243.435L154.374 255.547L165.102 243.357C165.862 242.494 166.956 242 168.105 242H168.376C170.585 242 172.376 243.791 172.376 246V261.36C172.376 262.655 171.327 263.704 170.032 263.704C168.738 263.704 167.688 262.655 167.688 261.36V249.547L157.558 260.291C156.802 261.093 155.75 261.547 154.648 261.547H154.583C153.439 261.547 152.351 261.058 151.592 260.203L141.688 249.047V263.704V275.203C141.688 276.498 140.638 277.547 139.344 277.547C138.049 277.547 137 276.498 137 275.203V246C137 243.791 138.791 242 141 242H141.184Z" fill="#F25F5C"/>
<path d="M191.376 242.5C192.678 242.5 193.732 243.555 193.732 244.856V268.17C193.716 271.523 192.658 274.265 190.559 276.397C188.475 278.53 185.643 279.726 182.062 279.986L180.817 280.035C176.927 280.035 173.827 278.985 171.516 276.886C169.204 274.786 168.033 271.897 168 268.219V266.319C168 265.038 169.038 264 170.319 264C171.6 264 172.639 265.038 172.639 266.319V268.072C172.639 270.644 173.347 272.646 174.763 274.078C176.179 275.494 178.197 276.202 180.817 276.202C183.47 276.202 185.497 275.494 186.896 274.078C188.312 272.662 189.021 270.668 189.021 268.097V244.856C189.021 243.555 190.075 242.5 191.376 242.5Z" fill="#FFCA3A"/>
<path d="M200.883 275.777C200.883 277.024 199.872 278.035 198.625 278.035C197.377 278.035 196.366 277.024 196.366 275.777V250.758C196.366 249.511 197.377 248.5 198.625 248.5C199.872 248.5 200.883 249.511 200.883 250.758V275.777ZM196 244.612C196 243.88 196.22 243.261 196.659 242.757C197.115 242.252 197.782 242 198.661 242C199.54 242 200.207 242.252 200.663 242.757C201.119 243.261 201.347 243.88 201.347 244.612C201.347 245.345 201.119 245.955 200.663 246.443C200.207 246.932 199.54 247.176 198.661 247.176C197.782 247.176 197.115 246.932 196.659 246.443C196.22 245.955 196 245.345 196 244.612Z" fill="#1982C4"/>
</svg>
