<svg width="358" height="358" viewBox="0 0 358 358" fill="none" xmlns="http://www.w3.org/2000/svg">
<rect width="358" height="358" rx="20" fill="#272932"/>
<path d="M68.2687 70.5366C65.23 66.7245 65.8569 61.1709 69.6689 58.1321L70.1533 57.746C73.9653 54.7073 79.519 55.3341 82.5577 59.1462L181.519 183.29C184.557 187.102 183.93 192.656 180.118 195.694L179.634 196.08C175.822 199.119 170.268 198.492 167.23 194.68L68.2687 70.5366Z" fill="#FFCA3A" fill-opacity="0.8"/>
<path d="M166.248 183.29C163.209 187.102 163.836 192.655 167.648 195.694L168.133 196.08C171.945 199.119 177.498 198.492 180.537 194.68L279.498 70.5362C282.537 66.7242 281.91 61.1706 278.098 58.1318L277.614 57.7457C273.802 54.7069 268.248 55.3338 265.209 59.1458L166.248 183.29Z" fill="#8AC926" fill-opacity="0.8"/>
<path d="M263 64.8276C263 59.9523 267.051 56 272.048 56H272.952C277.949 56 282 59.9522 282 64.8276V303.172C282 308.048 277.949 312 272.952 312H272.048C267.051 312 263 308.048 263 303.172V64.8276Z" fill="#1982C4" fill-opacity="0.9"/>
<path d="M66 64.8276C66 59.9523 70.0508 56 75.0476 56H75.9524C80.9492 56 85 59.9522 85 64.8276V303.172C85 308.048 80.9492 312 75.9524 312H75.0476C70.0508 312 66 308.048 66 303.172V64.8276Z" fill="#F25F5C" fill-opacity="0.9"/>
<path d="M154.375 290.766H157.375C157.219 292.203 156.807 293.49 156.141 294.625C155.474 295.76 154.531 296.661 153.312 297.328C152.094 297.984 150.573 298.312 148.75 298.312C147.417 298.312 146.203 298.062 145.109 297.562C144.026 297.062 143.094 296.354 142.312 295.438C141.531 294.51 140.927 293.401 140.5 292.109C140.083 290.807 139.875 289.359 139.875 287.766V285.5C139.875 283.906 140.083 282.464 140.5 281.172C140.927 279.87 141.536 278.755 142.328 277.828C143.13 276.901 144.094 276.188 145.219 275.688C146.344 275.188 147.609 274.938 149.016 274.938C150.734 274.938 152.188 275.26 153.375 275.906C154.562 276.552 155.484 277.448 156.141 278.594C156.807 279.729 157.219 281.047 157.375 282.547H154.375C154.229 281.484 153.958 280.573 153.562 279.812C153.167 279.042 152.604 278.448 151.875 278.031C151.146 277.615 150.193 277.406 149.016 277.406C148.005 277.406 147.115 277.599 146.344 277.984C145.583 278.37 144.943 278.917 144.422 279.625C143.911 280.333 143.526 281.182 143.266 282.172C143.005 283.161 142.875 284.26 142.875 285.469V287.766C142.875 288.88 142.99 289.927 143.219 290.906C143.458 291.885 143.818 292.745 144.297 293.484C144.776 294.224 145.385 294.807 146.125 295.234C146.865 295.651 147.74 295.859 148.75 295.859C150.031 295.859 151.052 295.656 151.812 295.25C152.573 294.844 153.146 294.26 153.531 293.5C153.927 292.74 154.208 291.828 154.375 290.766Z" fill="#DE5A58"/>
<path d="M176.344 285.031V287.484H164.031V285.031H176.344ZM164.5 275.25V298H161.484V275.25H164.5ZM178.969 275.25V298H175.969V275.25H178.969Z" fill="#D4AA38"/>
<path d="M192.75 277.266L185.219 298H182.141L190.812 275.25H192.797L192.75 277.266ZM199.062 298L191.516 277.266L191.469 275.25H193.453L202.156 298H199.062ZM198.672 289.578V292.047H185.891V289.578H198.672Z" fill="#76A928"/>
<path d="M213.609 275.25V298H210.641V275.25H213.609ZM220.922 275.25V277.719H203.344V275.25H220.922Z" fill="#1A79B5"/>
</svg>
