<svg width="358" height="358" viewBox="0 0 358 358" fill="none" xmlns="http://www.w3.org/2000/svg">
<rect width="358" height="358" rx="16" fill="#272932"/>
<path d="M82.972 128V156H80.132V133.6L69.132 152.44H67.732L56.732 133.72V156H53.892V128H56.332L68.492 148.76L80.532 128H82.972ZM91.4952 134.96H94.3352V156H91.4952V134.96ZM92.9352 130.36C92.3485 130.36 91.8552 130.16 91.4552 129.76C91.0552 129.36 90.8552 128.88 90.8552 128.32C90.8552 127.787 91.0552 127.32 91.4552 126.92C91.8552 126.52 92.3485 126.32 92.9352 126.32C93.5218 126.32 94.0152 126.52 94.4152 126.92C94.8152 127.293 95.0152 127.747 95.0152 128.28C95.0152 128.867 94.8152 129.36 94.4152 129.76C94.0152 130.16 93.5218 130.36 92.9352 130.36ZM112.957 134.8C115.597 134.8 117.691 135.573 119.237 137.12C120.811 138.64 121.597 140.867 121.597 143.8V156H118.757V144.08C118.757 141.893 118.211 140.227 117.117 139.08C116.024 137.933 114.464 137.36 112.437 137.36C110.171 137.36 108.371 138.04 107.037 139.4C105.731 140.733 105.077 142.587 105.077 144.96V156H102.237V134.96H104.957V138.84C105.731 137.56 106.797 136.573 108.157 135.88C109.544 135.16 111.144 134.8 112.957 134.8ZM129.308 134.96H132.148V156H129.308V134.96ZM130.748 130.36C130.161 130.36 129.668 130.16 129.268 129.76C128.868 129.36 128.668 128.88 128.668 128.32C128.668 127.787 128.868 127.32 129.268 126.92C129.668 126.52 130.161 126.32 130.748 126.32C131.334 126.32 131.828 126.52 132.228 126.92C132.628 127.293 132.828 127.747 132.828 128.28C132.828 128.867 132.628 129.36 132.228 129.76C131.828 130.16 131.334 130.36 130.748 130.36ZM161.599 128C165.172 128 167.972 128.853 169.999 130.56C172.025 132.267 173.039 134.613 173.039 137.6C173.039 140.587 172.025 142.933 169.999 144.64C167.972 146.32 165.172 147.16 161.599 147.16H154.079V156H151.119V128H161.599ZM161.519 144.56C164.292 144.56 166.412 143.96 167.879 142.76C169.345 141.533 170.079 139.813 170.079 137.6C170.079 135.333 169.345 133.6 167.879 132.4C166.412 131.173 164.292 130.56 161.519 130.56H154.079V144.56H161.519ZM181.012 139.08C181.679 137.667 182.665 136.6 183.972 135.88C185.305 135.16 186.945 134.8 188.892 134.8V137.56L188.212 137.52C185.999 137.52 184.265 138.2 183.012 139.56C181.759 140.92 181.132 142.827 181.132 145.28V156H178.292V134.96H181.012V139.08ZM202.439 156.2C200.412 156.2 198.586 155.747 196.959 154.84C195.332 153.907 194.052 152.627 193.119 151C192.186 149.373 191.719 147.533 191.719 145.48C191.719 143.427 192.186 141.587 193.119 139.96C194.052 138.333 195.332 137.067 196.959 136.16C198.586 135.253 200.412 134.8 202.439 134.8C204.466 134.8 206.292 135.253 207.919 136.16C209.546 137.067 210.812 138.333 211.719 139.96C212.652 141.587 213.119 143.427 213.119 145.48C213.119 147.533 212.652 149.373 211.719 151C210.812 152.627 209.546 153.907 207.919 154.84C206.292 155.747 204.466 156.2 202.439 156.2ZM202.439 153.68C203.932 153.68 205.266 153.347 206.439 152.68C207.639 151.987 208.572 151.013 209.239 149.76C209.906 148.507 210.239 147.08 210.239 145.48C210.239 143.88 209.906 142.453 209.239 141.2C208.572 139.947 207.639 138.987 206.439 138.32C205.266 137.627 203.932 137.28 202.439 137.28C200.946 137.28 199.599 137.627 198.399 138.32C197.226 138.987 196.292 139.947 195.599 141.2C194.932 142.453 194.599 143.88 194.599 145.48C194.599 147.08 194.932 148.507 195.599 149.76C196.292 151.013 197.226 151.987 198.399 152.68C199.599 153.347 200.946 153.68 202.439 153.68ZM215.797 163.96C214.917 163.96 214.09 163.84 213.317 163.6C212.517 163.387 211.864 163.053 211.357 162.6L212.357 160.44C213.184 161.16 214.277 161.52 215.637 161.52C216.757 161.52 217.61 161.187 218.197 160.52C218.81 159.853 219.117 158.867 219.117 157.56V134.96H221.957V157.56C221.957 159.533 221.424 161.093 220.357 162.24C219.29 163.387 217.77 163.96 215.797 163.96ZM220.557 130.32C219.97 130.32 219.477 130.12 219.077 129.72C218.677 129.32 218.477 128.84 218.477 128.28C218.477 127.747 218.677 127.28 219.077 126.88C219.477 126.48 219.97 126.28 220.557 126.28C221.144 126.28 221.637 126.48 222.037 126.88C222.437 127.253 222.637 127.707 222.637 128.24C222.637 128.827 222.437 129.32 222.037 129.72C221.637 130.12 221.144 130.32 220.557 130.32ZM248.214 146.36H230.614C230.774 148.547 231.614 150.32 233.134 151.68C234.654 153.013 236.574 153.68 238.894 153.68C240.2 153.68 241.4 153.453 242.494 153C243.587 152.52 244.534 151.827 245.334 150.92L246.934 152.76C246 153.88 244.827 154.733 243.414 155.32C242.027 155.907 240.494 156.2 238.814 156.2C236.654 156.2 234.734 155.747 233.054 154.84C231.4 153.907 230.107 152.627 229.174 151C228.24 149.373 227.774 147.533 227.774 145.48C227.774 143.427 228.214 141.587 229.094 139.96C230 138.333 231.227 137.067 232.774 136.16C234.347 135.253 236.107 134.8 238.054 134.8C240 134.8 241.747 135.253 243.294 136.16C244.84 137.067 246.054 138.333 246.934 139.96C247.814 141.56 248.254 143.4 248.254 145.48L248.214 146.36ZM238.054 137.24C236.027 137.24 234.32 137.893 232.934 139.2C231.574 140.48 230.8 142.16 230.614 144.24H245.534C245.347 142.16 244.56 140.48 243.174 139.2C241.814 137.893 240.107 137.24 238.054 137.24ZM262.754 156.2C260.674 156.2 258.808 155.747 257.154 154.84C255.528 153.933 254.248 152.667 253.314 151.04C252.381 149.387 251.914 147.533 251.914 145.48C251.914 143.427 252.381 141.587 253.314 139.96C254.248 138.333 255.528 137.067 257.154 136.16C258.808 135.253 260.674 134.8 262.754 134.8C264.568 134.8 266.181 135.16 267.594 135.88C269.034 136.573 270.168 137.6 270.994 138.96L268.874 140.4C268.181 139.36 267.301 138.587 266.234 138.08C265.168 137.547 264.008 137.28 262.754 137.28C261.234 137.28 259.861 137.627 258.634 138.32C257.434 138.987 256.488 139.947 255.794 141.2C255.128 142.453 254.794 143.88 254.794 145.48C254.794 147.107 255.128 148.547 255.794 149.8C256.488 151.027 257.434 151.987 258.634 152.68C259.861 153.347 261.234 153.68 262.754 153.68C264.008 153.68 265.168 153.427 266.234 152.92C267.301 152.413 268.181 151.64 268.874 150.6L270.994 152.04C270.168 153.4 269.034 154.44 267.594 155.16C266.154 155.853 264.541 156.2 262.754 156.2ZM287.888 154.72C287.354 155.2 286.688 155.573 285.888 155.84C285.114 156.08 284.301 156.2 283.448 156.2C281.474 156.2 279.954 155.667 278.888 154.6C277.821 153.533 277.288 152.027 277.288 150.08V137.36H273.528V134.96H277.288V130.36H280.128V134.96H286.528V137.36H280.128V149.92C280.128 151.173 280.434 152.133 281.048 152.8C281.688 153.44 282.594 153.76 283.768 153.76C284.354 153.76 284.914 153.667 285.448 153.48C286.008 153.293 286.488 153.027 286.888 152.68L287.888 154.72ZM298.698 156.2C296.991 156.2 295.351 155.96 293.778 155.48C292.231 154.973 291.018 154.347 290.138 153.6L291.418 151.36C292.298 152.053 293.404 152.627 294.738 153.08C296.071 153.507 297.458 153.72 298.898 153.72C300.818 153.72 302.231 153.427 303.138 152.84C304.071 152.227 304.538 151.373 304.538 150.28C304.538 149.507 304.284 148.907 303.778 148.48C303.271 148.027 302.631 147.693 301.858 147.48C301.084 147.24 300.058 147.013 298.778 146.8C297.071 146.48 295.698 146.16 294.658 145.84C293.618 145.493 292.724 144.92 291.978 144.12C291.258 143.32 290.898 142.213 290.898 140.8C290.898 139.04 291.631 137.6 293.098 136.48C294.564 135.36 296.604 134.8 299.218 134.8C300.578 134.8 301.938 134.987 303.298 135.36C304.658 135.707 305.778 136.173 306.658 136.76L305.418 139.04C303.684 137.84 301.618 137.24 299.218 137.24C297.404 137.24 296.031 137.56 295.098 138.2C294.191 138.84 293.738 139.68 293.738 140.72C293.738 141.52 293.991 142.16 294.498 142.64C295.031 143.12 295.684 143.48 296.458 143.72C297.231 143.933 298.298 144.16 299.658 144.4C301.338 144.72 302.684 145.04 303.698 145.36C304.711 145.68 305.578 146.227 306.298 147C307.018 147.773 307.378 148.84 307.378 150.2C307.378 152.04 306.604 153.507 305.058 154.6C303.538 155.667 301.418 156.2 298.698 156.2ZM95.5052 205.24C92.7318 205.24 90.2252 204.627 87.9852 203.4C85.7718 202.173 84.0252 200.48 82.7452 198.32C81.4918 196.133 80.8652 193.693 80.8652 191C80.8652 188.307 81.4918 185.88 82.7452 183.72C84.0252 181.533 85.7852 179.827 88.0252 178.6C90.2652 177.373 92.7718 176.76 95.5452 176.76C97.6252 176.76 99.5452 177.107 101.305 177.8C103.065 178.493 104.558 179.507 105.785 180.84L103.905 182.72C101.718 180.507 98.9585 179.4 95.6252 179.4C93.4118 179.4 91.3985 179.907 89.5852 180.92C87.7718 181.933 86.3452 183.32 85.3052 185.08C84.2918 186.84 83.7852 188.813 83.7852 191C83.7852 193.187 84.2918 195.16 85.3052 196.92C86.3452 198.68 87.7718 200.067 89.5852 201.08C91.3985 202.093 93.4118 202.6 95.6252 202.6C98.9852 202.6 101.745 201.48 103.905 199.24L105.785 201.12C104.558 202.453 103.052 203.48 101.265 204.2C99.5052 204.893 97.5852 205.24 95.5052 205.24ZM119.158 205.2C117.131 205.2 115.304 204.747 113.678 203.84C112.051 202.907 110.771 201.627 109.838 200C108.904 198.373 108.438 196.533 108.438 194.48C108.438 192.427 108.904 190.587 109.838 188.96C110.771 187.333 112.051 186.067 113.678 185.16C115.304 184.253 117.131 183.8 119.158 183.8C121.184 183.8 123.011 184.253 124.638 185.16C126.264 186.067 127.531 187.333 128.438 188.96C129.371 190.587 129.838 192.427 129.838 194.48C129.838 196.533 129.371 198.373 128.438 200C127.531 201.627 126.264 202.907 124.638 203.84C123.011 204.747 121.184 205.2 119.158 205.2ZM119.158 202.68C120.651 202.68 121.984 202.347 123.158 201.68C124.358 200.987 125.291 200.013 125.958 198.76C126.624 197.507 126.958 196.08 126.958 194.48C126.958 192.88 126.624 191.453 125.958 190.2C125.291 188.947 124.358 187.987 123.158 187.32C121.984 186.627 120.651 186.28 119.158 186.28C117.664 186.28 116.318 186.627 115.118 187.32C113.944 187.987 113.011 188.947 112.318 190.2C111.651 191.453 111.318 192.88 111.318 194.48C111.318 196.08 111.651 197.507 112.318 198.76C113.011 200.013 113.944 200.987 115.118 201.68C116.318 202.347 117.664 202.68 119.158 202.68ZM135.636 175.32H138.476V205H135.636V175.32ZM146.378 175.32H149.218V205H146.378V175.32ZM175.44 195.36H157.84C158 197.547 158.84 199.32 160.36 200.68C161.88 202.013 163.8 202.68 166.12 202.68C167.427 202.68 168.627 202.453 169.72 202C170.813 201.52 171.76 200.827 172.56 199.92L174.16 201.76C173.227 202.88 172.053 203.733 170.64 204.32C169.253 204.907 167.72 205.2 166.04 205.2C163.88 205.2 161.96 204.747 160.28 203.84C158.627 202.907 157.333 201.627 156.4 200C155.467 198.373 155 196.533 155 194.48C155 192.427 155.44 190.587 156.32 188.96C157.227 187.333 158.453 186.067 160 185.16C161.573 184.253 163.333 183.8 165.28 183.8C167.227 183.8 168.973 184.253 170.52 185.16C172.067 186.067 173.28 187.333 174.16 188.96C175.04 190.56 175.48 192.4 175.48 194.48L175.44 195.36ZM165.28 186.24C163.253 186.24 161.547 186.893 160.16 188.2C158.8 189.48 158.027 191.16 157.84 193.24H172.76C172.573 191.16 171.787 189.48 170.4 188.2C169.04 186.893 167.333 186.24 165.28 186.24ZM189.981 205.2C187.901 205.2 186.034 204.747 184.381 203.84C182.754 202.933 181.474 201.667 180.541 200.04C179.607 198.387 179.141 196.533 179.141 194.48C179.141 192.427 179.607 190.587 180.541 188.96C181.474 187.333 182.754 186.067 184.381 185.16C186.034 184.253 187.901 183.8 189.981 183.8C191.794 183.8 193.407 184.16 194.821 184.88C196.261 185.573 197.394 186.6 198.221 187.96L196.101 189.4C195.407 188.36 194.527 187.587 193.461 187.08C192.394 186.547 191.234 186.28 189.981 186.28C188.461 186.28 187.087 186.627 185.861 187.32C184.661 187.987 183.714 188.947 183.021 190.2C182.354 191.453 182.021 192.88 182.021 194.48C182.021 196.107 182.354 197.547 183.021 198.8C183.714 200.027 184.661 200.987 185.861 201.68C187.087 202.347 188.461 202.68 189.981 202.68C191.234 202.68 192.394 202.427 193.461 201.92C194.527 201.413 195.407 200.64 196.101 199.6L198.221 201.04C197.394 202.4 196.261 203.44 194.821 204.16C193.381 204.853 191.767 205.2 189.981 205.2ZM215.114 203.72C214.581 204.2 213.914 204.573 213.114 204.84C212.341 205.08 211.528 205.2 210.674 205.2C208.701 205.2 207.181 204.667 206.114 203.6C205.048 202.533 204.514 201.027 204.514 199.08V186.36H200.754V183.96H204.514V179.36H207.354V183.96H213.754V186.36H207.354V198.92C207.354 200.173 207.661 201.133 208.274 201.8C208.914 202.44 209.821 202.76 210.994 202.76C211.581 202.76 212.141 202.667 212.674 202.48C213.234 202.293 213.714 202.027 214.114 201.68L215.114 203.72ZM220.284 183.96H223.124V205H220.284V183.96ZM221.724 179.36C221.138 179.36 220.644 179.16 220.244 178.76C219.844 178.36 219.644 177.88 219.644 177.32C219.644 176.787 219.844 176.32 220.244 175.92C220.644 175.52 221.138 175.32 221.724 175.32C222.311 175.32 222.804 175.52 223.204 175.92C223.604 176.293 223.804 176.747 223.804 177.28C223.804 177.867 223.604 178.36 223.204 178.76C222.804 179.16 222.311 179.36 221.724 179.36ZM239.626 205.2C237.6 205.2 235.773 204.747 234.146 203.84C232.52 202.907 231.24 201.627 230.306 200C229.373 198.373 228.906 196.533 228.906 194.48C228.906 192.427 229.373 190.587 230.306 188.96C231.24 187.333 232.52 186.067 234.146 185.16C235.773 184.253 237.6 183.8 239.626 183.8C241.653 183.8 243.48 184.253 245.106 185.16C246.733 186.067 248 187.333 248.906 188.96C249.84 190.587 250.306 192.427 250.306 194.48C250.306 196.533 249.84 198.373 248.906 200C248 201.627 246.733 202.907 245.106 203.84C243.48 204.747 241.653 205.2 239.626 205.2ZM239.626 202.68C241.12 202.68 242.453 202.347 243.626 201.68C244.826 200.987 245.76 200.013 246.426 198.76C247.093 197.507 247.426 196.08 247.426 194.48C247.426 192.88 247.093 191.453 246.426 190.2C245.76 188.947 244.826 187.987 243.626 187.32C242.453 186.627 241.12 186.28 239.626 186.28C238.133 186.28 236.786 186.627 235.586 187.32C234.413 187.987 233.48 188.947 232.786 190.2C232.12 191.453 231.786 192.88 231.786 194.48C231.786 196.08 232.12 197.507 232.786 198.76C233.48 200.013 234.413 200.987 235.586 201.68C236.786 202.347 238.133 202.68 239.626 202.68ZM266.825 183.8C269.465 183.8 271.558 184.573 273.105 186.12C274.678 187.64 275.465 189.867 275.465 192.8V205H272.625V193.08C272.625 190.893 272.078 189.227 270.985 188.08C269.891 186.933 268.331 186.36 266.305 186.36C264.038 186.36 262.238 187.04 260.905 188.4C259.598 189.733 258.945 191.587 258.945 193.96V205H256.105V183.96H258.825V187.84C259.598 186.56 260.665 185.573 262.025 184.88C263.411 184.16 265.011 183.8 266.825 183.8Z" fill="#9CCD62"/>
<path d="M101.598 225.8V237H100.43V231.832H93.4221V237H92.2381V225.8H93.4221V230.792H100.43V225.8H101.598ZM107.43 226.824H103.494V225.8H112.55V226.824H108.614V237H107.43V226.824ZM126.073 225.8V237H124.937V228.04L120.537 235.576H119.977L115.577 228.088V237H114.441V225.8H115.417L120.281 234.104L125.097 225.8H126.073ZM129.722 225.8H130.906V235.976H137.178V237H129.722V225.8ZM143.332 225.128H144.388V240.104H143.332V225.128ZM157.102 237.096C155.993 237.096 154.99 236.851 154.094 236.36C153.209 235.869 152.51 235.192 151.998 234.328C151.497 233.453 151.246 232.477 151.246 231.4C151.246 230.323 151.497 229.352 151.998 228.488C152.51 227.613 153.214 226.931 154.11 226.44C155.006 225.949 156.009 225.704 157.118 225.704C157.95 225.704 158.718 225.843 159.422 226.12C160.126 226.397 160.723 226.803 161.214 227.336L160.462 228.088C159.587 227.203 158.483 226.76 157.15 226.76C156.265 226.76 155.459 226.963 154.734 227.368C154.009 227.773 153.438 228.328 153.022 229.032C152.617 229.736 152.414 230.525 152.414 231.4C152.414 232.275 152.617 233.064 153.022 233.768C153.438 234.472 154.009 235.027 154.734 235.432C155.459 235.837 156.265 236.04 157.15 236.04C158.494 236.04 159.598 235.592 160.462 234.696L161.214 235.448C160.723 235.981 160.121 236.392 159.406 236.68C158.702 236.957 157.934 237.096 157.102 237.096ZM166.764 237.096C165.932 237.096 165.132 236.963 164.364 236.696C163.606 236.429 163.02 236.077 162.604 235.64L163.068 234.728C163.473 235.133 164.012 235.464 164.684 235.72C165.356 235.965 166.049 236.088 166.764 236.088C167.766 236.088 168.518 235.907 169.02 235.544C169.521 235.171 169.772 234.691 169.772 234.104C169.772 233.656 169.633 233.299 169.356 233.032C169.089 232.765 168.758 232.563 168.364 232.424C167.969 232.275 167.42 232.115 166.716 231.944C165.873 231.731 165.201 231.528 164.7 231.336C164.198 231.133 163.766 230.829 163.404 230.424C163.052 230.019 162.876 229.469 162.876 228.776C162.876 228.211 163.025 227.699 163.324 227.24C163.622 226.771 164.081 226.397 164.7 226.12C165.318 225.843 166.086 225.704 167.004 225.704C167.644 225.704 168.268 225.795 168.876 225.976C169.494 226.147 170.028 226.387 170.476 226.696L170.076 227.64C169.606 227.331 169.105 227.101 168.572 226.952C168.038 226.792 167.516 226.712 167.004 226.712C166.022 226.712 165.281 226.904 164.78 227.288C164.289 227.661 164.044 228.147 164.044 228.744C164.044 229.192 164.177 229.555 164.444 229.832C164.721 230.099 165.062 230.307 165.468 230.456C165.884 230.595 166.438 230.749 167.132 230.92C167.953 231.123 168.614 231.325 169.116 231.528C169.628 231.72 170.06 232.019 170.412 232.424C170.764 232.819 170.94 233.357 170.94 234.04C170.94 234.605 170.785 235.123 170.476 235.592C170.177 236.051 169.713 236.419 169.084 236.696C168.454 236.963 167.681 237.096 166.764 237.096ZM176.607 237.096C175.775 237.096 174.975 236.963 174.207 236.696C173.45 236.429 172.863 236.077 172.447 235.64L172.911 234.728C173.317 235.133 173.855 235.464 174.527 235.72C175.199 235.965 175.893 236.088 176.607 236.088C177.61 236.088 178.362 235.907 178.863 235.544C179.365 235.171 179.615 234.691 179.615 234.104C179.615 233.656 179.477 233.299 179.199 233.032C178.933 232.765 178.602 232.563 178.207 232.424C177.813 232.275 177.263 232.115 176.559 231.944C175.717 231.731 175.045 231.528 174.543 231.336C174.042 231.133 173.61 230.829 173.247 230.424C172.895 230.019 172.719 229.469 172.719 228.776C172.719 228.211 172.869 227.699 173.167 227.24C173.466 226.771 173.925 226.397 174.543 226.12C175.162 225.843 175.93 225.704 176.847 225.704C177.487 225.704 178.111 225.795 178.719 225.976C179.338 226.147 179.871 226.387 180.319 226.696L179.919 227.64C179.45 227.331 178.949 227.101 178.415 226.952C177.882 226.792 177.359 226.712 176.847 226.712C175.866 226.712 175.125 226.904 174.623 227.288C174.133 227.661 173.887 228.147 173.887 228.744C173.887 229.192 174.021 229.555 174.287 229.832C174.565 230.099 174.906 230.307 175.311 230.456C175.727 230.595 176.282 230.749 176.975 230.92C177.797 231.123 178.458 231.325 178.959 231.528C179.471 231.72 179.903 232.019 180.255 232.424C180.607 232.819 180.783 233.357 180.783 234.04C180.783 234.605 180.629 235.123 180.319 235.592C180.021 236.051 179.557 236.419 178.927 236.696C178.298 236.963 177.525 237.096 176.607 237.096ZM187.551 225.128H188.607V240.104H187.551V225.128ZM197.657 237.096C197.017 237.096 196.425 236.957 195.881 236.68C195.337 236.403 194.894 236.008 194.553 235.496L195.257 234.696C195.875 235.613 196.681 236.072 197.673 236.072C199.059 236.072 199.753 235.251 199.753 233.608V226.824H195.657V225.8H200.921V233.56C200.921 234.733 200.643 235.619 200.089 236.216C199.545 236.803 198.734 237.096 197.657 237.096ZM207.176 228.52C208.275 228.52 209.118 228.797 209.704 229.352C210.291 229.896 210.584 230.707 210.584 231.784V237H209.496V235.688C209.24 236.125 208.862 236.467 208.36 236.712C207.87 236.957 207.283 237.08 206.6 237.08C205.662 237.08 204.915 236.856 204.36 236.408C203.806 235.96 203.528 235.368 203.528 234.632C203.528 233.917 203.784 233.341 204.296 232.904C204.819 232.467 205.646 232.248 206.776 232.248H209.448V231.736C209.448 231.011 209.246 230.461 208.84 230.088C208.435 229.704 207.843 229.512 207.064 229.512C206.531 229.512 206.019 229.603 205.528 229.784C205.038 229.955 204.616 230.195 204.264 230.504L203.752 229.656C204.179 229.293 204.691 229.016 205.288 228.824C205.886 228.621 206.515 228.52 207.176 228.52ZM206.776 236.184C207.416 236.184 207.966 236.04 208.424 235.752C208.883 235.453 209.224 235.027 209.448 234.472V233.096H206.808C205.368 233.096 204.648 233.597 204.648 234.6C204.648 235.091 204.835 235.48 205.208 235.768C205.582 236.045 206.104 236.184 206.776 236.184ZM220.586 228.584L216.842 237H215.674L211.946 228.584H213.13L216.282 235.752L219.466 228.584H220.586ZM224.88 228.52C225.978 228.52 226.821 228.797 227.408 229.352C227.994 229.896 228.288 230.707 228.288 231.784V237H227.2V235.688C226.944 236.125 226.565 236.467 226.064 236.712C225.573 236.957 224.986 237.08 224.304 237.08C223.365 237.08 222.618 236.856 222.064 236.408C221.509 235.96 221.232 235.368 221.232 234.632C221.232 233.917 221.488 233.341 222 232.904C222.522 232.467 223.349 232.248 224.48 232.248H227.152V231.736C227.152 231.011 226.949 230.461 226.544 230.088C226.138 229.704 225.546 229.512 224.768 229.512C224.234 229.512 223.722 229.603 223.232 229.784C222.741 229.955 222.32 230.195 221.968 230.504L221.456 229.656C221.882 229.293 222.394 229.016 222.992 228.824C223.589 228.621 224.218 228.52 224.88 228.52ZM224.48 236.184C225.12 236.184 225.669 236.04 226.128 235.752C226.586 235.453 226.928 235.027 227.152 234.472V233.096H224.512C223.072 233.096 222.352 233.597 222.352 234.6C222.352 235.091 222.538 235.48 222.912 235.768C223.285 236.045 223.808 236.184 224.48 236.184ZM234.701 237.096C233.869 237.096 233.069 236.963 232.301 236.696C231.544 236.429 230.957 236.077 230.541 235.64L231.005 234.728C231.41 235.133 231.949 235.464 232.621 235.72C233.293 235.965 233.986 236.088 234.701 236.088C235.704 236.088 236.456 235.907 236.957 235.544C237.458 235.171 237.709 234.691 237.709 234.104C237.709 233.656 237.57 233.299 237.293 233.032C237.026 232.765 236.696 232.563 236.301 232.424C235.906 232.275 235.357 232.115 234.653 231.944C233.81 231.731 233.138 231.528 232.637 231.336C232.136 231.133 231.704 230.829 231.341 230.424C230.989 230.019 230.813 229.469 230.813 228.776C230.813 228.211 230.962 227.699 231.261 227.24C231.56 226.771 232.018 226.397 232.637 226.12C233.256 225.843 234.024 225.704 234.941 225.704C235.581 225.704 236.205 225.795 236.813 225.976C237.432 226.147 237.965 226.387 238.413 226.696L238.013 227.64C237.544 227.331 237.042 227.101 236.509 226.952C235.976 226.792 235.453 226.712 234.941 226.712C233.96 226.712 233.218 226.904 232.717 227.288C232.226 227.661 231.981 228.147 231.981 228.744C231.981 229.192 232.114 229.555 232.381 229.832C232.658 230.099 233 230.307 233.405 230.456C233.821 230.595 234.376 230.749 235.069 230.92C235.89 231.123 236.552 231.325 237.053 231.528C237.565 231.72 237.997 232.019 238.349 232.424C238.701 232.819 238.877 233.357 238.877 234.04C238.877 234.605 238.722 235.123 238.413 235.592C238.114 236.051 237.65 236.419 237.021 236.696C236.392 236.963 235.618 237.096 234.701 237.096ZM244.705 237.08C243.873 237.08 243.126 236.899 242.465 236.536C241.814 236.173 241.302 235.667 240.929 235.016C240.555 234.355 240.369 233.613 240.369 232.792C240.369 231.971 240.555 231.235 240.929 230.584C241.302 229.933 241.814 229.427 242.465 229.064C243.126 228.701 243.873 228.52 244.705 228.52C245.43 228.52 246.075 228.664 246.641 228.952C247.217 229.229 247.67 229.64 248.001 230.184L247.153 230.76C246.875 230.344 246.523 230.035 246.097 229.832C245.67 229.619 245.206 229.512 244.705 229.512C244.097 229.512 243.547 229.651 243.057 229.928C242.577 230.195 242.198 230.579 241.921 231.08C241.654 231.581 241.521 232.152 241.521 232.792C241.521 233.443 241.654 234.019 241.921 234.52C242.198 235.011 242.577 235.395 243.057 235.672C243.547 235.939 244.097 236.072 244.705 236.072C245.206 236.072 245.67 235.971 246.097 235.768C246.523 235.565 246.875 235.256 247.153 234.84L248.001 235.416C247.67 235.96 247.217 236.376 246.641 236.664C246.065 236.941 245.419 237.08 244.705 237.08ZM251.32 230.232C251.587 229.667 251.982 229.24 252.504 228.952C253.038 228.664 253.694 228.52 254.472 228.52V229.624L254.2 229.608C253.315 229.608 252.622 229.88 252.12 230.424C251.619 230.968 251.368 231.731 251.368 232.712V237H250.232V228.584H251.32V230.232ZM256.529 228.584H257.665V237H256.529V228.584ZM257.105 226.744C256.871 226.744 256.673 226.664 256.513 226.504C256.353 226.344 256.273 226.152 256.273 225.928C256.273 225.715 256.353 225.528 256.513 225.368C256.673 225.208 256.871 225.128 257.105 225.128C257.34 225.128 257.537 225.208 257.697 225.368C257.857 225.517 257.937 225.699 257.937 225.912C257.937 226.147 257.857 226.344 257.697 226.504C257.537 226.664 257.34 226.744 257.105 226.744ZM265.162 228.52C265.952 228.52 266.666 228.701 267.306 229.064C267.946 229.416 268.448 229.917 268.81 230.568C269.173 231.219 269.354 231.96 269.354 232.792C269.354 233.635 269.173 234.381 268.81 235.032C268.448 235.683 267.946 236.189 267.306 236.552C266.677 236.904 265.962 237.08 265.162 237.08C264.48 237.08 263.861 236.941 263.306 236.664C262.762 236.376 262.314 235.96 261.962 235.416V240.104H260.826V228.584H261.914V230.248C262.256 229.693 262.704 229.267 263.258 228.968C263.824 228.669 264.458 228.52 265.162 228.52ZM265.082 236.072C265.669 236.072 266.202 235.939 266.682 235.672C267.162 235.395 267.536 235.005 267.802 234.504C268.08 234.003 268.218 233.432 268.218 232.792C268.218 232.152 268.08 231.587 267.802 231.096C267.536 230.595 267.162 230.205 266.682 229.928C266.202 229.651 265.669 229.512 265.082 229.512C264.485 229.512 263.946 229.651 263.466 229.928C262.997 230.205 262.624 230.595 262.346 231.096C262.08 231.587 261.946 232.152 261.946 232.792C261.946 233.432 262.08 234.003 262.346 234.504C262.624 235.005 262.997 235.395 263.466 235.672C263.946 235.939 264.485 236.072 265.082 236.072ZM276.102 236.488C275.889 236.68 275.622 236.829 275.302 236.936C274.993 237.032 274.667 237.08 274.326 237.08C273.537 237.08 272.929 236.867 272.502 236.44C272.075 236.013 271.862 235.411 271.862 234.632V229.544H270.358V228.584H271.862V226.744H272.998V228.584H275.558V229.544H272.998V234.568C272.998 235.069 273.121 235.453 273.366 235.72C273.622 235.976 273.985 236.104 274.454 236.104C274.689 236.104 274.913 236.067 275.126 235.992C275.35 235.917 275.542 235.811 275.702 235.672L276.102 236.488Z" fill="#9CCD62"/>
</svg>
