<svg width="358" height="358" viewBox="0 0 358 358" fill="none" xmlns="http://www.w3.org/2000/svg">
<rect width="358" height="358" rx="16" fill="#272932"/>
<path d="M93 167.56H83.16V165H105.8V167.56H95.96V193H93V167.56ZM116.341 193.2C114.315 193.2 112.488 192.747 110.861 191.84C109.235 190.907 107.955 189.627 107.021 188C106.088 186.373 105.621 184.533 105.621 182.48C105.621 180.427 106.088 178.587 107.021 176.96C107.955 175.333 109.235 174.067 110.861 173.16C112.488 172.253 114.315 171.8 116.341 171.8C118.368 171.8 120.195 172.253 121.821 173.16C123.448 174.067 124.715 175.333 125.621 176.96C126.555 178.587 127.021 180.427 127.021 182.48C127.021 184.533 126.555 186.373 125.621 188C124.715 189.627 123.448 190.907 121.821 191.84C120.195 192.747 118.368 193.2 116.341 193.2ZM116.341 190.68C117.835 190.68 119.168 190.347 120.341 189.68C121.541 188.987 122.475 188.013 123.141 186.76C123.808 185.507 124.141 184.08 124.141 182.48C124.141 180.88 123.808 179.453 123.141 178.2C122.475 176.947 121.541 175.987 120.341 175.32C119.168 174.627 117.835 174.28 116.341 174.28C114.848 174.28 113.501 174.627 112.301 175.32C111.128 175.987 110.195 176.947 109.501 178.2C108.835 179.453 108.501 180.88 108.501 182.48C108.501 184.08 108.835 185.507 109.501 186.76C110.195 188.013 111.128 188.987 112.301 189.68C113.501 190.347 114.848 190.68 116.341 190.68ZM152.019 163.32V193H149.299V188.84C148.446 190.253 147.313 191.333 145.899 192.08C144.513 192.827 142.939 193.2 141.179 193.2C139.206 193.2 137.419 192.747 135.819 191.84C134.219 190.933 132.966 189.667 132.059 188.04C131.153 186.413 130.699 184.56 130.699 182.48C130.699 180.4 131.153 178.547 132.059 176.92C132.966 175.293 134.219 174.04 135.819 173.16C137.419 172.253 139.206 171.8 141.179 171.8C142.886 171.8 144.419 172.16 145.779 172.88C147.166 173.573 148.299 174.6 149.179 175.96V163.32H152.019ZM141.419 190.68C142.886 190.68 144.206 190.347 145.379 189.68C146.579 188.987 147.513 188.013 148.179 186.76C148.873 185.507 149.219 184.08 149.219 182.48C149.219 180.88 148.873 179.453 148.179 178.2C147.513 176.947 146.579 175.987 145.379 175.32C144.206 174.627 142.886 174.28 141.419 174.28C139.926 174.28 138.579 174.627 137.379 175.32C136.206 175.987 135.273 176.947 134.579 178.2C133.913 179.453 133.579 180.88 133.579 182.48C133.579 184.08 133.913 185.507 134.579 186.76C135.273 188.013 136.206 188.987 137.379 189.68C138.579 190.347 139.926 190.68 141.419 190.68ZM168.529 193.2C166.502 193.2 164.675 192.747 163.049 191.84C161.422 190.907 160.142 189.627 159.209 188C158.275 186.373 157.809 184.533 157.809 182.48C157.809 180.427 158.275 178.587 159.209 176.96C160.142 175.333 161.422 174.067 163.049 173.16C164.675 172.253 166.502 171.8 168.529 171.8C170.555 171.8 172.382 172.253 174.009 173.16C175.635 174.067 176.902 175.333 177.809 176.96C178.742 178.587 179.209 180.427 179.209 182.48C179.209 184.533 178.742 186.373 177.809 188C176.902 189.627 175.635 190.907 174.009 191.84C172.382 192.747 170.555 193.2 168.529 193.2ZM168.529 190.68C170.022 190.68 171.355 190.347 172.529 189.68C173.729 188.987 174.662 188.013 175.329 186.76C175.995 185.507 176.329 184.08 176.329 182.48C176.329 180.88 175.995 179.453 175.329 178.2C174.662 176.947 173.729 175.987 172.529 175.32C171.355 174.627 170.022 174.28 168.529 174.28C167.035 174.28 165.689 174.627 164.489 175.32C163.315 175.987 162.382 176.947 161.689 178.2C161.022 179.453 160.689 180.88 160.689 182.48C160.689 184.08 161.022 185.507 161.689 186.76C162.382 188.013 163.315 188.987 164.489 189.68C165.689 190.347 167.035 190.68 168.529 190.68ZM213.636 185.52H198.036L194.676 193H191.596L204.396 165H207.316L220.116 193H216.996L213.636 185.52ZM212.556 183.12L205.836 168.08L199.116 183.12H212.556ZM234.988 171.8C236.961 171.8 238.748 172.253 240.348 173.16C241.948 174.04 243.201 175.293 244.108 176.92C245.014 178.547 245.468 180.4 245.468 182.48C245.468 184.587 245.014 186.453 244.108 188.08C243.201 189.707 241.948 190.973 240.348 191.88C238.774 192.76 236.988 193.2 234.988 193.2C233.281 193.2 231.734 192.853 230.348 192.16C228.988 191.44 227.868 190.4 226.988 189.04V200.76H224.148V171.96H226.868V176.12C227.721 174.733 228.841 173.667 230.228 172.92C231.641 172.173 233.228 171.8 234.988 171.8ZM234.788 190.68C236.254 190.68 237.588 190.347 238.788 189.68C239.988 188.987 240.921 188.013 241.588 186.76C242.281 185.507 242.628 184.08 242.628 182.48C242.628 180.88 242.281 179.467 241.588 178.24C240.921 176.987 239.988 176.013 238.788 175.32C237.588 174.627 236.254 174.28 234.788 174.28C233.294 174.28 231.948 174.627 230.747 175.32C229.574 176.013 228.641 176.987 227.948 178.24C227.281 179.467 226.948 180.88 226.948 182.48C226.948 184.08 227.281 185.507 227.948 186.76C228.641 188.013 229.574 188.987 230.747 189.68C231.948 190.347 233.294 190.68 234.788 190.68ZM262.097 171.8C264.07 171.8 265.857 172.253 267.457 173.16C269.057 174.04 270.31 175.293 271.217 176.92C272.124 178.547 272.577 180.4 272.577 182.48C272.577 184.587 272.124 186.453 271.217 188.08C270.31 189.707 269.057 190.973 267.457 191.88C265.884 192.76 264.097 193.2 262.097 193.2C260.39 193.2 258.844 192.853 257.457 192.16C256.097 191.44 254.977 190.4 254.097 189.04V200.76H251.257V171.96H253.977V176.12C254.83 174.733 255.95 173.667 257.337 172.92C258.75 172.173 260.337 171.8 262.097 171.8ZM261.897 190.68C263.364 190.68 264.697 190.347 265.897 189.68C267.097 188.987 268.03 188.013 268.697 186.76C269.39 185.507 269.737 184.08 269.737 182.48C269.737 180.88 269.39 179.467 268.697 178.24C268.03 176.987 267.097 176.013 265.897 175.32C264.697 174.627 263.364 174.28 261.897 174.28C260.404 174.28 259.057 174.627 257.857 175.32C256.684 176.013 255.75 176.987 255.057 178.24C254.39 179.467 254.057 180.88 254.057 182.48C254.057 184.08 254.39 185.507 255.057 186.76C255.75 188.013 256.684 188.987 257.857 189.68C259.057 190.347 260.404 190.68 261.897 190.68Z" fill="#9CCD62"/>
</svg>
